<svg viewBox="0 0 24 24" fill="none" xmlns="http://www.w3.org/2000/svg">
<g clip-path="url(#clip0_892_6)">
<path d="M3.68359 8.0187V15.9861C3.68359 16.4916 3.95318 16.9633 4.39608 17.2137L11.2899 21.195C11.728 21.4501 12.272 21.4501 12.7101 21.195L19.6087 17.2137C20.0468 16.9585 20.3212 16.4916 20.3212 15.9861V8.0187C20.3212 7.51322 20.0516 7.04143 19.6087 6.78629L12.7101 2.80501C12.272 2.54986 11.728 2.54986 11.2899 2.80501L4.39127 6.78629C3.958 7.04143 3.68359 7.5084 3.68359 8.0187Z" fill="#213147"/>
<path d="M13.5092 13.5213L12.5223 16.1753C12.4934 16.2464 12.4934 16.3317 12.5223 16.4028L14.212 20.9715L16.1714 19.8578L13.8221 13.5166C13.7691 13.3744 13.5621 13.3744 13.5092 13.5213Z" fill="#12AAFF"/>
<path d="M15.4781 9.05215C15.4252 8.90523 15.2182 8.90523 15.1604 9.05215L14.1735 11.7062C14.1446 11.782 14.1446 11.8626 14.1735 11.9337L16.9465 19.4171L18.9058 18.3033L15.4781 9.05215Z" fill="#12AAFF"/>
<path d="M12.0024 3.23697C12.0505 3.23697 12.0987 3.25118 12.142 3.27488L19.6039 7.51659C19.6906 7.56398 19.7435 7.65403 19.7435 7.75356V16.237C19.7435 16.3365 19.6906 16.4265 19.6039 16.4739L12.142 20.7204C12.0987 20.7441 12.0505 20.7583 12.0024 20.7583C11.9543 20.7583 11.9061 20.7441 11.8628 20.7204L4.40091 16.4787C4.31426 16.4313 4.2613 16.3412 4.2613 16.2417V7.75356C4.2613 7.65403 4.31426 7.56398 4.40091 7.51659L11.8628 3.27488C11.9061 3.25118 11.9543 3.23697 12.0024 3.23697ZM12.0024 2C11.7376 2 11.468 2.07109 11.2321 2.20379L3.77026 6.4455C3.29848 6.71564 3 7.21327 3 7.75356V16.237C3 16.7773 3.29366 17.2796 3.77026 17.5498L11.2321 21.7915C11.468 21.9289 11.7328 21.9953 12.0024 21.9953C12.272 21.9953 12.5368 21.9242 12.7727 21.7915L20.2346 17.5498C20.7112 17.2796 21.0048 16.782 21.0048 16.237V7.75356C21.0048 7.21327 20.7112 6.7109 20.2346 6.44076L12.7727 2.20379C12.532 2.07109 12.2672 2 12.0024 2Z" fill="#9DCCED"/>
<path d="M7.06787 19.4265L7.75629 17.5782L9.13313 18.7061L7.84776 19.8673L7.06787 19.4265Z" fill="#213147"/>
<path d="M11.3718 7.15167H9.47987C9.34026 7.15167 9.21027 7.23698 9.16213 7.36968L5.10864 18.3175L7.06799 19.4313L11.5355 7.37442C11.574 7.26542 11.4922 7.15167 11.3718 7.15167Z" fill="white"/>
<path d="M14.684 7.15167H12.792C12.6524 7.15167 12.5224 7.23698 12.4743 7.36968L7.8479 19.8673L9.80725 20.9811L14.8428 7.37442C14.8861 7.26542 14.7995 7.15167 14.684 7.15167Z" fill="white"/>
</g>
<defs>
<clipPath id="clip0_892_6">
<rect width="18" height="20" fill="white" transform="translate(3 2)"/>
</clipPath>
</defs>
</svg>

