<svg viewBox="0 0 24 24" fill="none" xmlns="http://www.w3.org/2000/svg">
<g clip-path="url(#clip0_892_2)">
<path d="M20.9073 16.6149L17.9359 19.7821C17.8713 19.8509 17.7931 19.9057 17.7063 19.9432C17.6194 19.9807 17.5257 20.0001 17.4311 20H3.34496C3.27775 20 3.212 19.9805 3.1558 19.9439C3.09959 19.9072 3.05538 19.8551 3.02859 19.7938C3.0018 19.7325 2.9936 19.6648 3.005 19.599C3.0164 19.5332 3.04689 19.4721 3.09275 19.4232L6.06643 16.256C6.13086 16.1874 6.20876 16.1326 6.29532 16.0952C6.3819 16.0577 6.47528 16.0383 6.56972 16.0381H20.655C20.7223 16.0381 20.788 16.0576 20.8442 16.0942C20.9004 16.1309 20.9446 16.183 20.9715 16.2443C20.9982 16.3056 21.0064 16.3733 20.995 16.4391C20.9836 16.5049 20.9531 16.566 20.9073 16.6149ZM17.9359 10.2369C17.8713 10.1681 17.7931 10.1133 17.7063 10.0758C17.6194 10.0383 17.5257 10.019 17.4311 10.0191H3.34496C3.27775 10.0191 3.212 10.0386 3.1558 10.0752C3.09959 10.1118 3.05538 10.164 3.02859 10.2252C3.0018 10.2865 2.9936 10.3542 3.005 10.4201C3.0164 10.4859 3.04689 10.547 3.09275 10.5958L6.06643 13.7631C6.13086 13.8317 6.20876 13.8864 6.29532 13.9239C6.3819 13.9614 6.47528 13.9808 6.56972 13.9809H20.655C20.7223 13.9809 20.788 13.9614 20.8442 13.9248C20.9004 13.8882 20.9446 13.836 20.9715 13.7748C20.9982 13.7135 21.0064 13.6458 20.995 13.5799C20.9836 13.5141 20.9531 13.453 20.9073 13.4042L17.9359 10.2369ZM3.34496 7.96191H17.4311C17.5257 7.96195 17.6194 7.94264 17.7063 7.90515C17.7931 7.86765 17.8713 7.8128 17.9359 7.744L20.9073 4.57676C20.9531 4.52792 20.9836 4.46683 20.995 4.401C21.0064 4.33517 20.9982 4.26746 20.9715 4.2062C20.9446 4.14493 20.9004 4.09278 20.8442 4.05615C20.788 4.01952 20.7223 4 20.655 4H6.56972C6.47528 4.00016 6.3819 4.01958 6.29532 4.05706C6.20876 4.09455 6.13086 4.14929 6.06643 4.21791L3.09352 7.38515C3.04771 7.43393 3.01722 7.49496 3.0058 7.56071C2.99437 7.62647 3.00251 7.69413 3.0292 7.75536C3.0559 7.8166 3.09999 7.86875 3.15608 7.90544C3.21217 7.94213 3.27782 7.96175 3.34496 7.96191Z" fill="url(#paint0_linear_892_2)"/>
</g>
<defs>
<linearGradient id="paint0_linear_892_2" x1="4.51941" y1="20.3813" x2="19.1895" y2="3.74193" gradientUnits="userSpaceOnUse">
<stop offset="0.08" stop-color="#9945FF"/>
<stop offset="0.3" stop-color="#8752F3"/>
<stop offset="0.5" stop-color="#5497D5"/>
<stop offset="0.6" stop-color="#43B4CA"/>
<stop offset="0.72" stop-color="#28E0B9"/>
<stop offset="0.97" stop-color="#19FB9B"/>
</linearGradient>
<clipPath id="clip0_892_2">
<rect width="18" height="16" fill="white" transform="translate(3 4)"/>
</clipPath>
</defs>
</svg>

