<svg xmlns="http://www.w3.org/2000/svg">
    <symbol id="menu" viewBox="0 0 24 24" fill="none" stroke="currentColor"
            stroke-width="1.5">
        <path stroke-linecap="round" stroke-linejoin="round"
              d="M3.75 6.75h16.5M3.75 12h16.5m-16.5 5.25h16.5" />
    </symbol>
    <symbol id="checkmark" viewBox="0 0 24 24" fill="none" stroke="currentColor"
            stroke-width="1.5">
        <path stroke-linecap="round" stroke-linejoin="round"
              d="M9 12.75 11.25 15 15 9.75M21 12c0 1.268-.63 2.39-1.593 3.068a3.745 3.745 0 0 1-1.043 3.296 3.745 3.745 0 0 1-3.296 1.043A3.745 3.745 0 0 1 12 21c-1.268 0-2.39-.63-3.068-1.593a3.746 3.746 0 0 1-3.296-1.043 3.745 3.745 0 0 1-1.043-3.296A3.745 3.745 0 0 1 3 12c0-1.268.63-2.39 1.593-3.068a3.745 3.745 0 0 1 1.043-3.296 3.746 3.746 0 0 1 3.296-1.043A3.746 3.746 0 0 1 12 3c1.268 0 2.39.63 3.068 1.593a3.746 3.746 0 0 1 3.296 1.043 3.746 3.746 0 0 1 1.043 3.296A3.745 3.745 0 0 1 21 12Z" />
    </symbol>
    <symbol id="error" viewBox="0 0 24 24" fill="none" stroke="currentColor"
            stroke-width="1.5">
        <path stroke-linecap="round" stroke-linejoin="round"
              d="M12 9v3.75m-9.303 3.376c-.866 1.5.217 3.374 1.948 3.374h14.71c1.73 0 2.813-1.874 1.948-3.374L13.949 3.378c-.866-1.5-3.032-1.5-3.898 0L2.697 16.126ZM12 15.75h.007v.008H12v-.008Z" />
    </symbol>
    <symbol id="wallet" viewBox="0 0 24 24" fill="none" stroke="currentColor"
            stroke-width="1.5">
        <path stroke-linecap="round" stroke-linejoin="round"
              d="M21 12a2.25 2.25 0 0 0-2.25-2.25H15a3 3 0 1 1-6 0H5.25A2.25 2.25 0 0 0 3 12m18 0v6a2.25 2.25 0 0 1-2.25 2.25H5.25A2.25 2.25 0 0 1 3 18v-6m18 0V9M3 12V9m18 0a2.25 2.25 0 0 0-2.25-2.25H5.25A2.25 2.25 0 0 0 3 9m18 0V6a2.25 2.25 0 0 0-2.25-2.25H5.25A2.25 2.25 0 0 0 3 6v3" />
    </symbol>
    <symbol id="arrows" viewBox="0 0 24 24" fill="none" stroke="currentColor"
            stroke-width="1.5">
        <path stroke-linecap="round" stroke-linejoin="round"
              d="M7.5 21 3 16.5m0 0L7.5 12M3 16.5h13.5m0-13.5L21 7.5m0 0L16.5 12M21 7.5H7.5" />
    </symbol>
    <symbol id="money" viewBox="0 0 24 24" fill="none" stroke="currentColor"
            stroke-width="1.5">
        <path stroke-linecap="round" stroke-linejoin="round"
              d="M2.25 18.75a60.07 60.07 0 0 1 15.797 2.101c.727.198 1.453-.342 1.453-1.096V18.75M3.75 4.5v.75A.75.75 0 0 1 3 6h-.75m0 0v-.375c0-.621.504-1.125 1.125-1.125H20.25M2.25 6v9m18-10.5v.75c0 .414.336.75.75.75h.75m-1.5-1.5h.375c.621 0 1.125.504 1.125 1.125v9.75c0 .621-.504 1.125-1.125 1.125h-.375m1.5-1.5H21a.75.75 0 0 0-.75.75v.75m0 0H3.75m0 0h-.375a1.125 1.125 0 0 1-1.125-1.125V15m1.5 1.5v-.75A.75.75 0 0 0 3 15h-.75M15 10.5a3 3 0 1 1-6 0 3 3 0 0 1 6 0Zm3 0h.008v.008H18V10.5Zm-12 0h.008v.008H6V10.5Z" />
    </symbol>
    <symbol id="arrow-br" viewBox="0 0 24 24" fill="none" stroke="currentColor"
            stroke-width="1.5">
        <path stroke-linecap="round" stroke-linejoin="round"
              d="m16.49 12 3.75 3.75m0 0-3.75 3.75m3.75-3.75H3.74V4.499" />
    </symbol>
    <symbol id="trash-bin" viewBox="0 0 24 24" fill="none" stroke="currentColor"
            stroke-width="1.5">
        <path stroke-linecap="round" stroke-linejoin="round"
              d="m14.74 9-.346 9m-4.788 0L9.26 9m9.968-3.21c.342.052.682.107 1.022.166m-1.022-.165L18.16 19.673a2.25 2.25 0 0 1-2.244 2.077H8.084a2.25 2.25 0 0 1-2.244-2.077L4.772 5.79m14.456 0a48.108 48.108 0 0 0-3.478-.397m-12 .562c.34-.059.68-.114 1.022-.165m0 0a48.11 48.11 0 0 1 3.478-.397m7.5 0v-.916c0-1.18-.91-2.164-2.09-2.201a51.964 51.964 0 0 0-3.32 0c-1.18.037-2.09 1.022-2.09 2.201v.916m7.5 0a48.667 48.667 0 0 0-7.5 0" />
    </symbol>
    <symbol id="chevron-d" viewBox="0 0 24 24" fill="none" stroke="currentColor"
            stroke-width="1.5">
        <path stroke-linecap="round" stroke-linejoin="round"
              d="m19.5 8.25-7.5 7.5-7.5-7.5" />
    </symbol>
    <symbol id="download" viewBox="0 0 24 24" fill="none" stroke="currentColor"
            stroke-width="1.5">
        <path stroke-linecap="round" stroke-linejoin="round"
              d="M3 16.5v2.25A2.25 2.25 0 0 0 5.25 21h13.5A2.25 2.25 0 0 0 21 18.75V16.5M16.5 12 12 16.5m0 0L7.5 12m4.5 4.5V3" />
    </symbol>
</svg>
